# xmcd CD database file
#
# Track frame offsets:
#	182
#	15152
#	28535
#	43345
#	58477
#	70785
#	86555
#	104660
#	121090
#	133877
#	146777
#	160897
#	175192
#	191862
#	205690
#	216422
#	230535
#
# Disc length: 3280 seconds
#
# Revision: 1
# Processed by: cddbd v1.5.1PL0 Copyright (c) Steve Scherf et al.
# Submitted via: CDex 1.51
#
DISCID=000cce11
DTITLE=Elmore James - King Of The Slide Guitar - Disc 4
DYEAR=1982
DGENRE=Blues
TTITLE0=It Hurts Me Too
TTITLE1=Dust My Broom
TTITLE2=Pickin' The Blues
TTITLE3=Everyday (I Have The Blues)
TTITLE4=I've Got A Right To Love My Baby
TTITLE5=The Twelve Year Old Boy
TTITLE6=She's Got To Go
TTITLE7=I Gotta Go Now
TTITLE8=Talk To Me Baby
TTITLE9=Make My Dreams Come True
TTITLE10=Hand In Hand (Take 1)
TTITLE11=Hand In Hand (Take 3)
TTITLE12=Conversation (Back In Mississippii)
TTITLE13=Hand In Hand (Take 4)
TTITLE14=I Can't Stop Loving My Baby
TTITLE15=Up Jumped Elmore
TTITLE16=I Believe
EXTD=YEAR: 1982
EXTT0=
EXTT1=
EXTT2=
EXTT3=
EXTT4=
EXTT5=
EXTT6=
EXTT7=
EXTT8=
EXTT9=
EXTT10=
EXTT11=
EXTT12=
EXTT13=
EXTT14=
EXTT15=
EXTT16=
PLAYORDER=
